<?xml version="1.0" standalone="no"?>
<!DOCTYPE svg PUBLIC "-//W3C//DTD SVG 20010904//EN"
 "http://www.w3.org/TR/2001/REC-SVG-20010904/DTD/svg10.dtd">
<svg version="1.0" xmlns="http://www.w3.org/2000/svg"
 width="250.000000pt" height="130.000000pt" viewBox="0 0 250.000000 130.000000"
 preserveAspectRatio="xMidYMid meet">

<g transform="translate(0.000000,130.000000) scale(0.100000,-0.100000)"
fill="#ffffff" stroke="none">
<path d="M617 682 c-339 -339 -617 -625 -617 -634 0 -21 27 -48 48 -48 9 0
274 258 589 572 l573 573 0 -523 0 -522 -204 0 c-113 0 -216 -4 -229 -9 -32
-13 -41 -39 -22 -67 l15 -24 250 0 c213 0 251 2 264 16 14 14 16 85 16 630 0
405 -4 622 -10 635 -6 10 -21 19 -33 19 -16 0 -194 -172 -640 -618z"/>
<path d="M1502 1288 c-9 -9 -12 -165 -12 -640 l0 -628 25 -12 c21 -9 28 -8 45
7 20 18 20 30 20 574 l0 556 338 -338 c223 -223 344 -337 358 -337 44 0 44 4
44 415 0 411 0 415 -45 415 -44 0 -45 -7 -45 -349 l0 -326 -338 338 c-223 223
-344 337 -358 337 -11 0 -25 -5 -32 -12z"/>
<path d="M2426 1278 c-14 -20 -16 -90 -16 -568 l0 -545 -338 338 c-186 185
-345 337 -353 337 -9 0 -23 -8 -32 -18 -15 -17 -17 -59 -17 -404 0 -372 1
-385 20 -403 17 -15 24 -16 45 -7 l25 12 0 325 c0 179 3 325 8 325 4 0 158
-151 342 -335 184 -184 342 -335 350 -335 40 0 40 3 40 656 0 567 -2 632 -16
638 -28 11 -42 7 -58 -16z"/>
<path d="M668 456 c-257 -254 -388 -391 -388 -404 0 -25 25 -52 48 -52 9 0
168 152 354 337 l338 338 0 -198 0 -197 -124 0 c-100 0 -128 -3 -140 -16 -19
-18 -20 -28 -6 -55 10 -18 23 -19 173 -19 114 0 167 4 175 12 9 9 12 93 12
315 0 289 -1 303 -19 313 -11 5 -23 10 -28 10 -4 -1 -182 -173 -395 -384z"/>
</g>
</svg>
